{
  "asset": {
    "generator": "glTF-Transform v4.4.2",
    "version": "2.0"
  },
  "accessors": [
    {
      "type": "SCALAR",
      "componentType": 5123,
      "count": 480,
      "normalized": false,
      "byteOffset": 0,
      "bufferView": 0
    },
    {
      "type": "VEC3",
      "componentType": 5122,
      "count": 244,
      "max": [
        32767,
        21354,
        18478
      ],
      "min": [
        -32767,
        -21354,
        -18478
      ],
      "normalized": true,
      "byteOffset": 0,
      "bufferView": 1
    },
    {
      "type": "VEC3",
      "componentType": 5122,
      "count": 244,
      "normalized": true,
      "byteOffset": 0,
      "bufferView": 2
    },
    {
      "type": "VEC2",
      "componentType": 5123,
      "count": 244,
      "normalized": true,
      "byteOffset": 0,
      "bufferView": 3
    }
  ],
  "bufferViews": [
    {
      "buffer": 1,
      "byteOffset": 0,
      "byteLength": 960,
      "target": 34963,
      "extensions": {
        "EXT_meshopt_compression": {
          "buffer": 0,
          "byteOffset": 0,
          "byteLength": 198,
          "mode": "TRIANGLES",
          "byteStride": 2,
          "count": 480
        }
      }
    },
    {
      "buffer": 1,
      "byteOffset": 960,
      "byteLength": 1952,
      "target": 34962,
      "byteStride": 8,
      "extensions": {
        "EXT_meshopt_compression": {
          "buffer": 0,
          "byteOffset": 200,
          "byteLength": 1308,
          "mode": "ATTRIBUTES",
          "byteStride": 8,
          "count": 244
        }
      }
    },
    {
      "buffer": 1,
      "byteOffset": 2912,
      "byteLength": 1952,
      "target": 34962,
      "byteStride": 8,
      "extensions": {
        "EXT_meshopt_compression": {
          "buffer": 0,
          "byteOffset": 1508,
          "byteLength": 670,
          "mode": "ATTRIBUTES",
          "byteStride": 8,
          "count": 244
        }
      }
    },
    {
      "buffer": 1,
      "byteOffset": 4864,
      "byteLength": 976,
      "target": 34962,
      "byteStride": 4,
      "extensions": {
        "EXT_meshopt_compression": {
          "buffer": 0,
          "byteOffset": 2180,
          "byteLength": 427,
          "mode": "ATTRIBUTES",
          "byteStride": 4,
          "count": 244
        }
      }
    }
  ],
  "samplers": [
    {
      "minFilter": 9987,
      "wrapS": 10497,
      "wrapT": 10497
    }
  ],
  "textures": [
    {
      "source": 0,
      "sampler": 0
    }
  ],
  "images": [
    {
      "name": "colormap",
      "mimeType": "image/png",
      "uri": "textures/a94b4dc4f77a4b8a.png"
    }
  ],
  "buffers": [
    {
      "uri": "bench_LOD1.bin",
      "byteLength": 2608
    },
    {
      "byteLength": 5840,
      "extensions": {
        "EXT_meshopt_compression": {
          "fallback": true
        }
      }
    }
  ],
  "materials": [
    {
      "name": "colormap",
      "doubleSided": true,
      "pbrMetallicRoughness": {
        "metallicFactor": 0,
        "baseColorTexture": {
          "index": 0,
          "extensions": {
            "KHR_texture_transform": {
              "texCoord": 0
            }
          }
        }
      }
    }
  ],
  "meshes": [
    {
      "name": "bench",
      "primitives": [
        {
          "attributes": {
            "POSITION": 1,
            "NORMAL": 2,
            "TEXCOORD_0": 3
          },
          "mode": 4,
          "material": 0,
          "indices": 0
        }
      ]
    }
  ],
  "nodes": [
    {
      "name": "bench",
      "translation": [
        0,
        0.2629897892475128,
        0
      ],
      "scale": [
        0.4035762846469879,
        0.4035762846469879,
        0.4035762846469879
      ],
      "mesh": 0
    }
  ],
  "scenes": [
    {
      "name": "bench",
      "nodes": [
        0
      ]
    }
  ],
  "scene": 0,
  "extensionsUsed": [
    "EXT_meshopt_compression",
    "KHR_mesh_quantization",
    "KHR_texture_transform"
  ],
  "extensionsRequired": [
    "EXT_meshopt_compression",
    "KHR_mesh_quantization"
  ]
}