{
  "asset": {
    "generator": "glTF-Transform v4.4.2",
    "version": "2.0"
  },
  "accessors": [
    {
      "type": "SCALAR",
      "componentType": 5123,
      "count": 1800,
      "normalized": false,
      "byteOffset": 0,
      "bufferView": 0
    },
    {
      "type": "VEC3",
      "componentType": 5122,
      "count": 1534,
      "max": [
        18074,
        32767,
        18346
      ],
      "min": [
        -18074,
        -32767,
        -18346
      ],
      "normalized": true,
      "byteOffset": 0,
      "bufferView": 1
    },
    {
      "type": "VEC2",
      "componentType": 5123,
      "count": 1534,
      "normalized": true,
      "byteOffset": 0,
      "bufferView": 2
    },
    {
      "type": "VEC3",
      "componentType": 5122,
      "count": 1534,
      "normalized": true,
      "byteOffset": 0,
      "bufferView": 3
    }
  ],
  "bufferViews": [
    {
      "buffer": 1,
      "byteOffset": 0,
      "byteLength": 3600,
      "target": 34963,
      "extensions": {
        "EXT_meshopt_compression": {
          "buffer": 0,
          "byteOffset": 0,
          "byteLength": 679,
          "mode": "TRIANGLES",
          "byteStride": 2,
          "count": 1800
        }
      }
    },
    {
      "buffer": 1,
      "byteOffset": 3600,
      "byteLength": 12272,
      "target": 34962,
      "byteStride": 8,
      "extensions": {
        "EXT_meshopt_compression": {
          "buffer": 0,
          "byteOffset": 680,
          "byteLength": 8193,
          "mode": "ATTRIBUTES",
          "byteStride": 8,
          "count": 1534
        }
      }
    },
    {
      "buffer": 1,
      "byteOffset": 15872,
      "byteLength": 6136,
      "target": 34962,
      "byteStride": 4,
      "extensions": {
        "EXT_meshopt_compression": {
          "buffer": 0,
          "byteOffset": 8876,
          "byteLength": 2463,
          "mode": "ATTRIBUTES",
          "byteStride": 4,
          "count": 1534
        }
      }
    },
    {
      "buffer": 1,
      "byteOffset": 22008,
      "byteLength": 12272,
      "target": 34962,
      "byteStride": 8,
      "extensions": {
        "EXT_meshopt_compression": {
          "buffer": 0,
          "byteOffset": 11340,
          "byteLength": 3647,
          "mode": "ATTRIBUTES",
          "byteStride": 8,
          "count": 1534
        }
      }
    }
  ],
  "samplers": [
    {
      "minFilter": 9987,
      "wrapS": 10497,
      "wrapT": 10497
    }
  ],
  "textures": [
    {
      "source": 0,
      "sampler": 0
    }
  ],
  "images": [
    {
      "name": "colormap",
      "mimeType": "image/png",
      "uri": "textures/a94b4dc4f77a4b8a.png"
    }
  ],
  "buffers": [
    {
      "uri": "lightpost-all_LOD1.bin",
      "byteLength": 14988
    },
    {
      "byteLength": 34280,
      "extensions": {
        "EXT_meshopt_compression": {
          "fallback": true
        }
      }
    }
  ],
  "materials": [
    {
      "name": "colormap",
      "doubleSided": true,
      "pbrMetallicRoughness": {
        "metallicFactor": 0,
        "baseColorTexture": {
          "index": 0,
          "extensions": {
            "KHR_texture_transform": {
              "texCoord": 0
            }
          }
        }
      }
    }
  ],
  "meshes": [
    {
      "name": "lightpost-all",
      "primitives": [
        {
          "attributes": {
            "POSITION": 1,
            "TEXCOORD_0": 2,
            "NORMAL": 3
          },
          "mode": 4,
          "material": 0,
          "indices": 0
        }
      ]
    }
  ],
  "nodes": [
    {
      "name": "lightpost-all",
      "translation": [
        0.00528283417224884,
        0.6332969665527344,
        0
      ],
      "scale": [
        0.6332969665527344,
        0.6332969665527344,
        0.6332969665527344
      ],
      "mesh": 0
    }
  ],
  "scenes": [
    {
      "name": "lightpost-all",
      "nodes": [
        0
      ]
    }
  ],
  "scene": 0,
  "extensionsUsed": [
    "EXT_meshopt_compression",
    "KHR_mesh_quantization",
    "KHR_texture_transform"
  ],
  "extensionsRequired": [
    "EXT_meshopt_compression",
    "KHR_mesh_quantization"
  ]
}