{
  "asset": {
    "generator": "glTF-Transform v4.4.2",
    "version": "2.0"
  },
  "accessors": [
    {
      "type": "SCALAR",
      "componentType": 5123,
      "count": 3036,
      "normalized": false,
      "byteOffset": 0,
      "bufferView": 0
    },
    {
      "type": "VEC3",
      "componentType": 5122,
      "count": 1312,
      "max": [
        18798,
        32767,
        18798
      ],
      "min": [
        -18798,
        -32767,
        -18798
      ],
      "normalized": true,
      "byteOffset": 0,
      "bufferView": 1
    },
    {
      "type": "VEC3",
      "componentType": 5122,
      "count": 1312,
      "normalized": true,
      "byteOffset": 0,
      "bufferView": 2
    },
    {
      "type": "VEC2",
      "componentType": 5123,
      "count": 1312,
      "normalized": true,
      "byteOffset": 0,
      "bufferView": 3
    }
  ],
  "bufferViews": [
    {
      "buffer": 1,
      "byteOffset": 0,
      "byteLength": 6072,
      "target": 34963,
      "extensions": {
        "EXT_meshopt_compression": {
          "buffer": 0,
          "byteOffset": 0,
          "byteLength": 1366,
          "mode": "TRIANGLES",
          "byteStride": 2,
          "count": 3036
        }
      }
    },
    {
      "buffer": 1,
      "byteOffset": 6072,
      "byteLength": 10496,
      "target": 34962,
      "byteStride": 8,
      "extensions": {
        "EXT_meshopt_compression": {
          "buffer": 0,
          "byteOffset": 1368,
          "byteLength": 6796,
          "mode": "ATTRIBUTES",
          "byteStride": 8,
          "count": 1312
        }
      }
    },
    {
      "buffer": 1,
      "byteOffset": 16568,
      "byteLength": 10496,
      "target": 34962,
      "byteStride": 8,
      "extensions": {
        "EXT_meshopt_compression": {
          "buffer": 0,
          "byteOffset": 8164,
          "byteLength": 3857,
          "mode": "ATTRIBUTES",
          "byteStride": 8,
          "count": 1312
        }
      }
    },
    {
      "buffer": 1,
      "byteOffset": 27064,
      "byteLength": 5248,
      "target": 34962,
      "byteStride": 4,
      "extensions": {
        "EXT_meshopt_compression": {
          "buffer": 0,
          "byteOffset": 12024,
          "byteLength": 2049,
          "mode": "ATTRIBUTES",
          "byteStride": 4,
          "count": 1312
        }
      }
    }
  ],
  "samplers": [
    {
      "minFilter": 9987,
      "wrapS": 10497,
      "wrapT": 10497
    }
  ],
  "textures": [
    {
      "source": 0,
      "sampler": 0
    }
  ],
  "images": [
    {
      "name": "colormap",
      "mimeType": "image/png",
      "uri": "textures/a94b4dc4f77a4b8a.png"
    }
  ],
  "buffers": [
    {
      "uri": "lightpost-all.bin",
      "byteLength": 14076
    },
    {
      "byteLength": 32312,
      "extensions": {
        "EXT_meshopt_compression": {
          "fallback": true
        }
      }
    }
  ],
  "materials": [
    {
      "name": "colormap",
      "doubleSided": true,
      "pbrMetallicRoughness": {
        "metallicFactor": 0,
        "baseColorTexture": {
          "index": 0,
          "extensions": {
            "KHR_texture_transform": {
              "texCoord": 0
            }
          }
        }
      }
    }
  ],
  "meshes": [
    {
      "name": "lightpost-all",
      "primitives": [
        {
          "attributes": {
            "POSITION": 1,
            "NORMAL": 2,
            "TEXCOORD_0": 3
          },
          "mode": 4,
          "material": 0,
          "indices": 0
        }
      ]
    }
  ],
  "nodes": [
    {
      "name": "lightpost-all",
      "translation": [
        0,
        0.6332969665527343,
        0
      ],
      "scale": [
        0.6332969665527344,
        0.6332969665527344,
        0.6332969665527344
      ],
      "mesh": 0
    }
  ],
  "scenes": [
    {
      "name": "lightpost-all",
      "nodes": [
        0
      ]
    }
  ],
  "scene": 0,
  "extensionsUsed": [
    "EXT_meshopt_compression",
    "KHR_mesh_quantization",
    "KHR_texture_transform"
  ],
  "extensionsRequired": [
    "EXT_meshopt_compression",
    "KHR_mesh_quantization"
  ]
}